<?xml version="1.0" encoding="UTF-8"?><svg id="Layer_1" xmlns="http://www.w3.org/2000/svg" viewBox="0 0 623.62 623.62"><defs><style>.cls-1{fill:#fff;}.cls-2{fill:#231f20;stroke:#231f20;stroke-miterlimit:10;}.cls-3{fill:none;}</style></defs><rect class="cls-2" x="124.72" y="124.72" width="15.67" height="374.17"/><rect class="cls-2" x="157.32" y="124.72" width="15.67" height="374.17"/><rect class="cls-2" x="189.91" y="124.72" width="15.67" height="374.17"/><rect class="cls-2" x="222.5" y="124.72" width="15.67" height="374.17"/><rect class="cls-2" x="255.09" y="124.72" width="15.67" height="374.17"/><rect class="cls-2" x="352.86" y="124.72" width="15.67" height="374.17"/><rect class="cls-2" x="320.27" y="124.72" width="15.67" height="374.17"/><rect class="cls-2" x="287.68" y="124.72" width="15.67" height="374.17"/><rect class="cls-2" x="385.45" y="124.72" width="15.67" height="374.17"/><rect class="cls-2" x="450.64" y="124.72" width="15.67" height="374.17"/><rect class="cls-2" x="483.23" y="124.72" width="15.67" height="374.17"/><rect class="cls-2" x="418.05" y="124.72" width="15.67" height="374.17"/><rect class="cls-3" x="249.18" y="249.4" width="124.73" height="124.73"/><polygon class="cls-1" points="342.68 374.13 340.1 379.74 335.61 374.13 342.68 374.13"/></svg>