<?xml version="1.0" encoding="UTF-8"?><svg id="Layer_1" xmlns="http://www.w3.org/2000/svg" viewBox="0 0 623.62 623.62"><defs><style>.cls-1{fill:#fff;}.cls-2{fill:#231f20;stroke:#231f20;stroke-miterlimit:10;}.cls-3{fill:none;}</style></defs><rect class="cls-2" x="124.72" y="124.72" width="15.67" height="374.18"/><rect class="cls-2" x="157.31" y="124.72" width="15.67" height="374.18"/><rect class="cls-2" x="189.91" y="124.72" width="15.66" height="374.18"/><rect class="cls-2" x="222.5" y="124.72" width="15.67" height="374.18"/><rect class="cls-2" x="255.09" y="124.72" width="15.67" height="374.18"/><rect class="cls-2" x="352.86" y="124.72" width="15.67" height="374.18"/><rect class="cls-2" x="320.27" y="124.72" width="15.67" height="374.18"/><rect class="cls-2" x="287.68" y="124.72" width="15.67" height="374.18"/><rect class="cls-2" x="385.45" y="124.72" width="15.67" height="374.18"/><rect class="cls-2" x="450.64" y="124.72" width="15.67" height="374.18"/><rect class="cls-2" x="483.23" y="124.72" width="15.67" height="374.17"/><rect class="cls-2" x="418.05" y="124.72" width="15.66" height="374.18"/><rect class="cls-3" x="249.45" y="249.45" width="124.72" height="124.72"/><polygon class="cls-1" points="374.17 251.3 374.17 374.17 369.26 374.17 356.98 249.45 373.99 249.45 374.17 251.3"/><polygon class="cls-1" points="352.75 374.17 335.74 374.17 323.47 249.45 340.47 249.45 352.75 374.17"/><polygon class="cls-1" points="319.96 374.17 302.96 374.17 290.68 249.45 307.68 249.45 319.96 374.17"/><polygon class="cls-1" points="287.84 374.17 270.83 374.17 258.56 249.45 275.56 249.45 287.84 374.17"/><polygon class="cls-1" points="254.68 374.17 249.45 374.17 249.45 321.04 254.68 374.17"/></svg>