<?xml version="1.0" encoding="UTF-8"?><svg id="Layer_1" xmlns="http://www.w3.org/2000/svg" viewBox="0 0 623.62 623.62"><defs><style>.cls-1{fill:#fff;}.cls-2{fill:#231f20;stroke:#231f20;stroke-miterlimit:10;}.cls-3{fill:none;}</style></defs><rect class="cls-2" x="124.72" y="124.72" width="15.67" height="374.18"/><rect class="cls-2" x="157.31" y="124.72" width="15.67" height="374.18"/><rect class="cls-2" x="189.91" y="124.72" width="15.66" height="374.18"/><rect class="cls-2" x="222.5" y="124.72" width="15.67" height="374.18"/><rect class="cls-2" x="255.09" y="124.72" width="15.67" height="374.18"/><rect class="cls-2" x="352.86" y="124.72" width="15.67" height="374.18"/><rect class="cls-2" x="320.27" y="124.72" width="15.67" height="374.18"/><rect class="cls-2" x="287.68" y="124.72" width="15.67" height="374.18"/><rect class="cls-2" x="385.45" y="124.72" width="15.67" height="374.18"/><rect class="cls-2" x="450.64" y="124.72" width="15.67" height="374.18"/><rect class="cls-2" x="483.23" y="124.72" width="15.67" height="374.17"/><rect class="cls-2" x="418.05" y="124.72" width="15.66" height="374.18"/><rect class="cls-3" x="249.45" y="249.45" width="124.72" height="124.72"/><polygon class="cls-1" points="374.17 251.3 374.17 374.17 369.26 374.17 356.98 249.45 373.99 249.45 374.17 251.3"/><polygon class="cls-1" points="352.75 374.17 335.74 374.17 323.47 249.45 340.47 249.45 352.75 374.17"/><polygon class="cls-1" points="319.96 374.17 302.96 374.17 290.68 249.45 307.68 249.45 319.96 374.17"/><polygon class="cls-1" points="287.84 374.17 270.83 374.17 258.56 249.45 275.56 249.45 287.84 374.17"/><polygon class="cls-1" points="254.68 374.17 249.45 374.17 249.45 321.04 254.68 374.17"/><rect class="cls-3" x="125.35" y="124.72" width="374.18" height="374.18"/><polygon class="cls-2" points="157.83 492 172.72 498.9 135.44 498.9 125.35 494.23 125.24 494.17 125.24 476.9 125.35 476.95 140.91 484.16 157.83 492"/><polygon class="cls-2" points="205.97 498.9 180.23 498.9 173.5 493.74 157.83 481.73 140.91 468.75 125.35 456.82 125.24 456.73 125.24 437 125.35 437.08 140.91 449.01 157.83 461.99 173.5 474 190.43 486.99 205.97 498.9"/><polygon class="cls-2" points="271.33 498.9 253.24 498.9 238.69 473.71 223.02 446.56 206.09 417.24 190.43 390.12 173.5 360.79 157.83 333.65 140.91 304.34 125.35 277.39 125.24 277.2 125.24 245.86 125.35 246.05 140.91 273 157.83 302.31 173.5 329.45 190.43 358.77 206.09 385.9 223.02 415.22 238.69 442.36 255.61 471.67 271.28 498.81 271.33 498.9"/><polygon class="cls-2" points="239.23 498.9 218.85 498.9 206.09 483.58 190.43 464.77 173.5 444.44 157.83 425.61 140.91 405.29 125.35 386.6 125.24 386.47 125.24 361.98 125.35 362.11 140.91 380.8 157.83 401.13 173.5 419.95 190.43 440.28 206.09 459.09 223.02 479.43 238.69 498.25 239.23 498.9"/><polygon class="cls-2" points="434.34 498.9 418.6 498.9 418.57 498.62 401.64 325.71 385.97 165.66 381.96 124.72 397.71 124.72 401.64 164.86 418.57 337.82 434.23 497.8 434.34 498.9"/><polygon class="cls-2" points="368.63 498.9 352.6 498.9 336.46 424.05 320.79 351.37 303.87 272.89 288.2 200.22 271.92 124.72 287.94 124.72 288.2 125.91 303.87 198.58 320.79 277.04 336.46 349.71 353.38 428.18 368.63 498.9"/><polygon class="cls-2" points="336.83 498.9 320.37 498.9 303.87 447.66 288.2 398.99 271.28 346.44 255.61 297.76 238.69 245.21 223.02 196.54 206.09 143.95 199.9 124.72 216.36 124.72 223.02 145.4 238.69 194.07 255.61 246.62 271.28 295.29 288.2 347.85 303.87 396.52 320.79 449.07 336.46 497.75 336.83 498.9"/><polygon class="cls-2" points="303.73 498.9 286.65 498.9 271.28 463.52 255.61 427.45 238.69 388.5 223.02 352.43 206.09 313.46 190.43 277.41 173.5 238.43 157.83 202.36 140.91 163.41 125.35 127.59 125.24 127.34 125.24 124.72 141.19 124.72 157.83 163.03 173.5 199.1 190.43 238.08 206.09 274.13 223.02 313.1 238.69 349.18 255.61 388.13 271.28 424.2 288.2 463.15 303.73 498.9"/><polygon class="cls-2" points="466.5 498.9 450.8 498.9 434.23 224.39 428.21 124.72 443.91 124.72 451.16 244.82 466.5 498.9"/><rect class="cls-2" x="477.86" y="124.72" width="15.67" height="374.17" transform="translate(-8.48 13.61) rotate(-1.59)"/><polygon class="cls-2" points="401.43 498.9 385.58 498.9 369.05 390.52 353.38 287.78 336.46 176.85 328.51 124.72 344.36 124.72 353.38 183.86 369.05 286.6 385.97 397.53 401.43 498.9"/><rect class="cls-3" x="248.24" y="249.45" width="124.72" height="124.72"/><polygon class="cls-1" points="372.96 355.86 372.96 374.17 368.61 374.17 248.24 275.65 248.24 253.79 372.96 355.86"/><polygon class="cls-1" points="367.39 374.17 324.91 374.17 248.24 340.87 248.24 322.42 367.39 374.17"/><polygon class="cls-1" points="314.56 374.17 275.43 374.17 248.24 361.14 248.24 342.38 314.56 374.17"/><rect class="cls-1" x="248.24" y="357.25" width="30.95" height="16.92"/></svg>